# xmcd
#
# Track frame offsets:
#	182
#	13167
#	27802
#	40582
#	62667
#	74170
#	92675
#	107695
#	121615
#	145942
#	162987
#	178000
#	190475
#	208117
#	230217
#
# Disc length: 3250 seconds
#
# Revision: 2
# Processed by: cddbd v1.5.2PL0 Copyright (c) Steve Scherf et al.
# Submitted via: audiograbber 1.83.01
#
DISCID=d60cb00f
DTITLE=The O'kanes - Oh Darlin' (Why Don't You Care For Me No More)
DYEAR=1993
DGENRE=Country
TTITLE0=Oh Darlin' (Why Don't You Care For Me No More)
TTITLE1=Just Lovin' You
TTITLE2=Can't Stop My Heart From Lovin' You
TTITLE3=Bluegrass Blues
TTITLE4=Oh Lonesome You
TTITLE5=When I Found You
TTITLE6=One True Love
TTITLE7=Blue Love
TTITLE8=Highway 55
TTITLE9=All Because Of You
TTITLE10=If I Could Be There
TTITLE11=I'm Lonely
TTITLE12=In My Heart
TTITLE13=Isn't That So
TTITLE14=Gonna Walk That Line
EXTD=Sony Music, 1993
EXTT0=
EXTT1=
EXTT2=
EXTT3=
EXTT4=
EXTT5=
EXTT6=
EXTT7=
EXTT8=
EXTT9=
EXTT10=
EXTT11=
EXTT12=
EXTT13=
EXTT14=
PLAYORDER=
